<svg xmlns="http://www.w3.org/2000/svg" width="900" height="900" viewBox="0 0 900 900" role="img"><defs>
    <linearGradient id="bg" x1="0" y1="0" x2="1" y2="1">
      <stop offset="0%" stop-color="#0f172a" />
      <stop offset="100%" stop-color="#1e293b" />
    </linearGradient>
  </defs>
  <rect x="0" y="0" width="900" height="900" fill="url(#bg)" /><g transform="translate(0 225)"><g fill="none" stroke="#38bdf8" stroke-width="2" opacity="0.7">
    <path d="M60,240 C140,80 260,60 340,200 C420,340 560,360 680,220 C760,120 840,140 880,260" />
    <path d="M20,220 C120,120 240,180 320,300 C400,420 520,360 620,240 C720,120 820,80 900,200" />
  </g>
  <g fill="#f8fafc" opacity="0.9">
    <circle cx="120" cy="180" r="3" />
    <circle cx="150" cy="205" r="2" />
    <circle cx="180" cy="160" r="2" />
    <circle cx="210" cy="210" r="2.5" />
    <circle cx="240" cy="190" r="2" />
    <circle cx="270" cy="230" r="2" />
    <circle cx="300" cy="175" r="2" />
    <circle cx="330" cy="250" r="2" />
    <circle cx="360" cy="210" r="3" />
    <circle cx="390" cy="190" r="2" />
    <circle cx="420" cy="260" r="2" />
    <circle cx="450" cy="230" r="2.5" />
    <circle cx="480" cy="200" r="2" />
    <circle cx="510" cy="260" r="2" />
    <circle cx="540" cy="220" r="2" />
    <circle cx="570" cy="240" r="2" />
    <circle cx="600" cy="210" r="2.5" />
    <circle cx="630" cy="190" r="2" />
    <circle cx="660" cy="250" r="2" />
    <circle cx="690" cy="220" r="2.5" />
    <circle cx="720" cy="200" r="2" />
    <circle cx="750" cy="230" r="2" />
    <circle cx="780" cy="210" r="2" />
  </g>
  <g fill="#facc15" opacity="0.8">
    <circle cx="260" cy="110" r="3" />
    <circle cx="310" cy="120" r="2" />
    <circle cx="350" cy="140" r="2" />
    <circle cx="410" cy="120" r="2.5" />
    <circle cx="460" cy="140" r="2" />
    <circle cx="520" cy="120" r="2" />
    <circle cx="580" cy="150" r="2" />
    <circle cx="640" cy="130" r="2.5" />
  </g>
  <g fill="#f472b6" opacity="0.75">
    <circle cx="240" cy="320" r="2" />
    <circle cx="300" cy="340" r="2.5" />
    <circle cx="360" cy="330" r="2" />
    <circle cx="420" cy="350" r="2" />
    <circle cx="480" cy="340" r="2" />
    <circle cx="540" cy="360" r="2.5" />
    <circle cx="600" cy="340" r="2" />
    <circle cx="660" cy="320" r="2" />
  </g>
  </g></svg>